# xmcd
#
# Track frame offsets: 
#        150
#        33245
#        56491
#        73786
#        90263
#        116618
#        141755
#        162396
#        186902
#
# Disc length: 2755 seconds
#
# Revision: 2
# Processed by: cddbd v1.5.2PL0 Copyright (c) Steve Scherf et al.
# Submitted via: ExactAudioCopy v0.99pb4
#
DISCID=760ac109
DTITLE=Sade - Love Deluxe
DYEAR=1992
DGENRE=Pop
TTITLE0=No ordinary love
TTITLE1=Feel no pain
TTITLE2=I couldn't love you more
TTITLE3=Like a tattoo
TTITLE4=Kiss of life
TTITLE5=Cherish the day
TTITLE6=Pearls
TTITLE7=Bullet proof soul
TTITLE8=Mermaid
EXTD=
EXTT0=
EXTT1=
EXTT2=
EXTT3=
EXTT4=
EXTT5=
EXTT6=
EXTT7=
EXTT8=
PLAYORDER=
